<?xml version="1.0" encoding="utf-8"?>
<!-- Generator: Adobe Illustrator 24.3.0, SVG Export Plug-In . SVG Version: 6.00 Build 0)  -->
<svg version="1.1" id="Layer_1" xmlns="http://www.w3.org/2000/svg" xmlns:xlink="http://www.w3.org/1999/xlink" x="0px" y="0px"
	 viewBox="0 0 709 626" style="enable-background:new 0 0 709 626;" xml:space="preserve">
<style type="text/css">
	.st0{fill:#f9cce0;}
	<!-- circle bg -->
	.st1{fill:#fff;}
	<!-- bottom arc -->
	.st2{fill:#000;}
	<!-- face top part -->
	.st3{fill:#fff;}
	<!-- K -->
	.st4{fill:#fff;}
	<!-- arc after for  -->
	.st5{fill:#fff;}
	<!-- N F -->
	.st6{fill:#fff;}
	<!-- n d -->
	.st7{fill:#fff;}
	<!-- Li e -->
	.st8{fill:#000;}
	<!-- nose inner curve -->
	.st9{fill:#fff;}
	<!-- I -->
	.st10{fill:#fff;}
	<!-- r -->
	.st11{fill:#fff;}
	<!-- dot in i -->
	.st12{fill:#000;}
	<!-- R and bottom part of E -->
	.st13{fill:#000;}
	<!-- Inner H -->
	.st14{fill:#000;}
	<!-- chin face part -->
	.st15{fill:#f9cce0;}
	<!-- oval in face -->
	.st16{fill:#fff;}
	<!-- o -->
	.st17{fill:#f9cce0;}
	<!-- circle in R -->
	.st18{fill:#000;}
	<!-- upper part of E -->
	.st19{fill:#000;}
	<!-- outer part of H -->
</style>
<circle class="st0" cx="364.82" cy="341.17" r="175.98"/>
<path class="st1" d="M366.22,569.45c-106.48,0.03-197.55-70.13-224.17-170.88c-1.23-4.64-2.31-9.33-3.14-14.06
	c-0.3-1.69-2.48-4.29,1.38-5.11c3.7-0.79,3.08,2.28,3.43,4.02c2.38,11.9,5.44,23.61,9.92,34.89
	c29.44,74.07,82.68,121.77,160.19,140.25c60.79,14.5,118.43,3.85,171.26-29.69c38.16-24.22,66.1-57.57,84.45-98.91
	c0.73-1.65,0.97-4.07,4.06-2.68c3.35,1.5,1.09,3.38,0.44,4.85c-15.8,35.58-38.9,65.49-69.76,89.31
	c-32.05,24.74-68.06,40.09-108.23,45.7C385.32,568.65,374.58,569.28,366.22,569.45z"/>
<path class="st2" d="M533.05,279.76c-13.44,3.37-26.38,0.52-39.09-3.59c-3.84-1.24-5.21-0.29-6.61,3.13
	c-5.8,14.21-4.73,28.59-1.65,43.1c0.6,2.82,2.04,2.23,3.95,1.32c6.7-3.21,13-7.37,20.55-8.57c9.49-1.5,19.27,3.52,23.07,11.94
	c3.73,8.25,0.93,19.47-6.44,25.79c-6.27,5.38-16.65,5.4-24.59,0.09c-7.04-4.71-11.11-11.72-14.74-19.05
	c-0.81-1.64-1.2-3.82-3.63-1.39c-14.65,14.6-21.35,32.97-9.24,52.06c7.08,11.16,17.81,18.08,30.06,22.72
	c0.6,0.23,1.14,0.62,1.71,0.94c-0.15,0.63-0.54,1.03-1.18,1.18c-10.38-3.87-19.94-9.16-27.55-17.31
	c-14.23-15.24-15.64-37.33-1.9-52.98c7.17-8.17,8.99-15.55,6.51-25.83c-2.96-12.32-1.48-24.83,3.83-36.53
	c1.16-2.55,0.77-3.89-1.25-5.33c-0.67-0.48-1.18-1.16-1.77-1.74c-10.18-9.86-10.16-14.76,0.09-25.28c0.76,0.22,1.24,0.71,1.45,1.46
	c-0.27,2.8-2.41,4.65-3.6,6.98c-2.93,5.74-0.02,13.54,5.93,15.78c2.5,0.94,3.1-1.18,4.18-2.51c7.24-8.9,15.84-15.93,26.94-19.51
	c3.93-0.59,7.82-0.55,11.56,0.98c1.68,0.68,3.32,1.45,3.86,3.43c-0.03,0.9-0.53,1.47-1.28,1.87c-4.84-0.91-9.55-3.21-14.64-1.35
	c-8.8,3.23-15.73,9.02-21.79,15.97c-2.97,3.4-2.82,4.69,1.32,5.97c10.61,3.25,21.35,5.92,32.59,3.35c4.09-0.42,5.3-4.42,8.06-6.49
	c1.26,0.27,0.75,1.49,1.17,2.2C538.36,276.08,535.92,278.09,533.05,279.76z"/>
<path class="st2" d="M484.29,245.62c-0.37-0.4-0.74-0.8-1.11-1.2c4.47-7.18,11.44-11.59,18.07-16.38
	c7.56-3.22,15.24-6.06,23.48-7.02c4.95-0.57,9.86-0.85,14.44,1.68c1.29,1.39,2.59-0.79,3.87,0.02c1.05,3.91,2.39,7.76,2.19,11.9
	c-0.36,0.37-0.73,0.37-1.1,0.02c-4.73-0.89-5.38,3.12-7.07,5.89c-1.24,0.4-1.94-0.25-2.46-1.26c-0.26-2.67-1.76-3.9-4.4-4.42
	c-7.48-1.49-14.91-2.31-22.37-0.01c-7.01,1.29-12.93,4.91-18.77,8.72C487.62,244.51,486.44,246.23,484.29,245.62z"/>
<path class="st2" d="M532.19,252.54c0.41-0.35,0.82-0.71,1.23-1.06c1.45-0.06,2.73-0.39,3.1-2.08c0.38-0.58,0.81-1.04,1.59-0.72
	c1.06,3.83,3.15,2.88,5.93,0.75c-3.5,7.28,1.27,12.1,3.91,17.53c2.39,4.91,4.91,9.8,5.29,15.41c0.39,1.17-0.15,1.42-1.18,1.21
	c-2.84-8.45-5.92-16.78-12.38-24.46c-0.56,5.05,0.37,9.32-0.77,13.4c-0.28-0.7-0.56-1.4-0.84-2.1c-1.86-1.58-0.31-4.64-2.83-6.24
	c-2.44,2.91-2.73,7.71-7.33,8.67c-7.48,1.88-14.76-0.08-22.07-1.21c-1.16-0.18-2.27-0.82-2.56-2.08c-0.39-1.69,1.05-2.39,2.17-2.89
	c5.28-2.4,10.51-4.88,15.67-7.5C524.96,257.21,529.35,256.17,532.19,252.54z"/>
<path class="st3" d="M146.42,233.1c-0.36-9.6-6.01-18.07-3.72-27.38c0.48-0.09,0.95-0.17,1.43-0.26c1.19,4.39,2.72,8.72,3.46,13.19
	c0.51,3.1,1.92,3.34,4.37,2.83c6.13-1.27,12.28-2.49,18.76-3.8c-0.35,3.2-1.58,4.76-4.75,5.19c-4.58,0.63-9.06,2.02-13.64,2.67
	c-2.65,0.38-2.72,1.55-2.39,3.68c0.67,4.28,1.89,8,6.61,9.47c1.3,0.41,2.92,0.94,1.89,3.14c-1.1,2.36-2.44,1.47-3.94,0.65
	c-10.91-5.95-21.83-11.88-32.74-17.85c-1.24-0.68-2.78-1.12-1.66-3.29c1.26-2.44,2.66-1.14,3.96-0.44
	C131.46,224.89,138.81,228.94,146.42,233.1z"/>
<path class="st4" d="M499.22,154.89c-1.08,1.54-1.63,2.6-2.43,3.4c-1.03,1.03-1.8-0.13-2.52-0.65
	c-19.41-13.87-40.58-24.2-63.25-31.5c-1.63-0.53-2.56-0.85-1.93-2.99c0.66-2.24,1.65-2.39,3.59-1.77
	c23.03,7.36,44.43,18.01,64.2,31.9C497.67,153.84,498.47,154.38,499.22,154.89z"/>
<path class="st5" d="M313.79,80.4c-0.33-1.53,0.06-2.29,1.89-2.53c8.05-1.08,16.06-2.37,24.09-3.6c1.42-0.22,2.64-0.35,2.84,1.65
	c0.2,2.07-1.23,1.96-2.54,2.15c-6.23,0.94-12.43,2.09-18.69,2.77c-2.66,0.29-2.94,1.33-2.51,3.5c0.58,2.92,1.34,5.88,1.39,8.83
	c0.07,4.01,2.01,3.98,5.08,3.35c4.7-0.96,9.49-1.52,14.23-2.29c1.55-0.25,2.95-0.59,3.25,1.71c0.29,2.21-1.24,1.86-2.47,2.04
	c-5.08,0.77-10.14,1.63-15.23,2.28c-2.83,0.36-4.02,1.35-3.23,4.45c0.85,3.36,1.21,6.86,1.7,10.31c0.2,1.43,0.52,2.83-1.81,3.25
	c-2.39,0.44-2.49-1.02-2.71-2.44C317.28,104.02,315.55,92.21,313.79,80.4z"/>
<path class="st5" d="M267.41,107.23c2.35-4.36,5.66-7.34,10.42-8.72c6.92-1.99,12.25,0.07,15.12,6.67
	c2.24,5.14,3.86,10.56,5.89,15.8c0.67,1.72,0.67,2.54-1.36,3.27c-2.1,0.76-2.28-0.63-2.71-1.75c-1.77-4.64-3.39-9.34-5.18-13.97
	c-2.29-5.89-6.2-7.89-11.66-6.11c-6.31,2.05-9.33,7.11-7.53,13c1.26,4.12,2.89,8.13,4.2,12.23c0.52,1.63,2.83,3.75-0.3,4.97
	c-3.53,1.38-3.1-2.12-3.74-3.74c-2.61-6.63-5.09-13.32-7.32-20.09c-0.47-1.43-3.1-3.54,0.23-4.9
	C266.46,102.67,265.97,105.98,267.41,107.23z"/>
<path class="st6" d="M117.54,278.13c-4.44-10.49-0.31-20.73,8.7-22.13c3.91-0.61,7.49,1.08,11.16,2c3.21,0.81,6.35,1.84,9.54,2.73
	c1.6,0.45,2.64,0.99,2.06,3.07c-0.66,2.36-1.9,1.57-3.39,1.11c-4.42-1.36-8.88-2.62-13.34-3.85c-6.4-1.76-10.39,0.08-12.39,5.62
	c-2.26,6.24-0.22,11.5,5.82,13.79c4.46,1.69,9.15,2.77,13.72,4.18c1.47,0.45,3.36,0.5,2.57,3.12c-0.83,2.76-2.34,1.45-3.85,1.01
	c-7.47-2.15-14.98-4.16-22.4-6.49c-1.2-0.38-4.15,0.52-3.33-2.83C113.25,276,115.48,278.45,117.54,278.13z"/>
<path class="st7" d="M136.94,343.05c0.1,1.99,0.15,3.98,0.29,5.97c0.54,7.69,0.56,7.76-6.94,8.13c-9.78,0.49-19.57,0.91-29.35,1.22
	c-1.49,0.05-3.86,1.33-4.12-1.87c-0.25-3.16,2.1-2.36,3.69-2.45c9.78-0.57,19.55-1.22,29.34-1.46c3.41-0.08,4.08-1.19,3.79-4.34
	c-0.53-5.61-0.63-11.27-0.84-16.91c-0.04-1.19-0.53-2.76,1.66-2.85c2-0.07,2.11,1.28,2.13,2.61c0.06,3.98,0.02,7.96,0.02,11.95
	C136.72,343.05,136.83,343.05,136.94,343.05z"/>
<path class="st2" d="M544.14,234.65c0.37-0.01,0.73-0.11,1.1-0.12c0.99,5.35,2.09,10.79,2.96,16.16c1.19,7.31,4.47,13.41,9.74,18.62
	c7.81,7.72,16.48,14.46,24.56,21.86c2.44,2.24,4.93,4.48,7.01,7.04c5.99,7.37,4.37,13.96-4.28,17.98c-1.65,0.76-3.42,1.25-5.14,1.86
	c0.2-2.89,2.96-2.61,4.61-3.57c6.97-4.08,8.04-9.34,2.67-15.4c-6.96-7.86-14.87-14.82-23.2-21.11
	C549.6,266.96,543.78,252.34,544.14,234.65z"/>
<path class="st8" d="M552.07,283.6c0.39-0.4,0.79-0.81,1.18-1.21c2.43,8.57,1.55,17.04-0.8,25.44c-1.04,3.71-1.98,7.41-1.17,11.27
	c0.75,3.56,3,5.88,6.5,6.86c3.29,0.93,5.42-1,7.14-3.37c3.78-5.21,9.07-8.72,13.94-12.7c1.59-1.3,3.76-1.95,4.86-0.27
	c1.22,1.87-0.49,3.57-2.04,4.99c-1.42,1.3-5.31-0.08-4.26,3.89c-4.86,2.61-9.84,4.79-14.3,8.36c-5.01,4.01-13.49-0.78-13.79-7.41
	c-0.17-3.76-0.01-7.74,1.03-11.31C552.73,300.02,552.99,291.88,552.07,283.6z"/>
<path class="st9" d="M232.93,107.92c1.34-0.02,1.54,1.33,2.07,2.28c5.55,9.82,11.1,19.63,16.56,29.49c0.74,1.33,2.78,2.81-0.02,4.47
	c-2.83,1.67-3.04-0.76-3.82-2.15c-5.55-9.81-10.97-19.69-16.61-29.46C229.67,110.06,229.89,108.69,232.93,107.92z"/>
<path class="st10" d="M418.94,93.23c2.98-1.88,5.89-3.38,9.38-3.05c1.33,0.13,2.8,0.07,2.49,2.13c-0.23,1.57-0.9,1.95-2.64,1.93
	c-7.01-0.09-10.14,2.59-11.62,9.54c-0.86,4.04-1.54,8.11-2.41,12.15c-0.29,1.35-0.44,2.82-2.82,2.24c-2.37-0.58-1.79-1.83-1.5-3.27
	c1.55-7.6,3.02-15.22,4.69-22.79c0.36-1.63-0.43-4.56,2.87-4.09C420.92,88.52,418.12,91.18,418.94,93.23z"/>
<path class="st7" d="M134.03,313.52c-7.63-0.9-15.2-1.74-22.76-2.74c-1.43-0.19-3.95,0.71-3.46-2.59c0.5-3.35,2.91-1.65,4.23-1.53
	c7.42,0.68,14.82,1.59,22.2,2.63c1.54,0.22,4.58-1.12,4.07,2.53C137.89,314.83,135.5,313.13,134.03,313.52z"/>
<path class="st2" d="M536.09,207.82c-3.63-7.27-6.99-14.67-10.73-21.9c4.77,6.49,8.68,13.43,11.65,20.9
	C536.84,207.26,536.54,207.6,536.09,207.82z"/>
<path class="st2" d="M536.09,207.82c0.31-0.34,0.62-0.67,0.93-1.01c2,5.31,5.09,10.21,6.03,15.92c-1.29,0.7-2.59,1.87-3.87-0.02
	c2.11,0.19,1.91-0.7,1.31-2.28C538.91,216.27,537.54,212.03,536.09,207.82z"/>
<path class="st11" d="M98.18,304.19c2.02,0.09,2.89,1.28,2.84,3.18c-0.04,1.66-0.97,2.84-2.6,3.02c-2.05,0.22-2.98-1.32-3.14-3
	C95.11,305.54,96.24,304.39,98.18,304.19z"/>
<path class="st12" d="M397.88,384.22c-0.11-7.44-0.33-14.89-0.31-22.33c0.04-21.7,0.18-43.4,0.27-65.1
	c13.77-0.65,27.6-2.7,41.14,1.9c1.88,0.64,3.96,0.44,5.8,1.29c7.09,3.02,11.31,8.12,12,16.02c0.34,3.91,2.4,7.65,1.34,11.71
	c-0.67,2.55-2.17,4.88-1.96,7.65c-1.82,4.06-4.78,7.06-8.69,9.12c-2.74,1.44-3.23,2.87-1.31,5.74c5.93,8.91,11.48,18.07,17.18,27.13
	c1.98,7.1,1.37,7.97-5.62,8.01c-0.99,0.01-2-0.1-2.98,0.02c-4.44,0.52-8.19-0.2-9.93-5.04c-0.27-0.76-0.99-1.31-1.66-1.81
	c-5.11-6.73-8.81-14.35-13.31-21.46c-3.77-5.97-6.17-6.9-13.45-4.49c-1.16,9.03-0.26,18.11-0.49,27.16
	c-0.14,5.54-0.05,5.55-5.49,5.63c-11.17,0.17-11.17,0.17-11.62-10.84C398.19,377.12,400.22,380.85,397.88,384.22z"/>
<path class="st13" d="M258.32,385.54c-5.38,1.48-10.86,0.29-16.28,0.58c-1.78,0.1-2.18-1.07-2.17-2.6
	c0.04-28.94,0.06-57.88,0.12-86.82c0-0.36,0.54-0.73,0.83-1.09c3.59,0.93,7.25,0.31,10.88,0.41c5.53,0.15,6.48,0.91,6.44,6.31
	c-0.07,8.13,0.34,16.28-0.25,24.4c-0.05,0.75,0.26,1.25,0.82,1.67c0.28,2.13,1.93,1.94,3.4,1.95c9.31,0.02,18.63-0.07,27.94,0.07
	c2.9,0.04,3.66-1.08,3.65-3.81c-0.04-9.97,0.13-19.93,0.21-29.9c0.44,0.16,1.1,0.15,1.11,0.77c0.15,9.8,0.03,19.59,0.1,29.38
	c0.02-8.05-0.02-16.11,0.01-24.16c0.02-5.8,0.85-6.61,6.59-6.66c10.35-0.1,10.35-0.1,10.35,10.4c0,24.4,0.01,48.8,0,73.21
	c0,5.61-0.03,5.76-5.43,5.67c-13.15-0.21-11.66,2.28-11.42-11.92c-0.13,2.71-0.05,5.43-0.15,8.14c-0.04,0.99,0.64,2.48-1.23,2.69
	c-0.08-10.94-0.16-21.89-0.25-32.83c-0.01-1.75,0.54-3.82-2.14-4.23c-1.59-0.54-3.19-0.39-4.85-0.38
	c-5.43,0.03-10.88,0.7-16.31-0.76c-2.84-0.76-5.96-0.58-8.62,1.28c-1.54,0.05-2.83,0.43-2.98,2.29c-1.16,8.73-0.35,17.51-0.49,26.26
	c-0.15,9.14-0.03,9.14-9.16,8.91C252.09,385.35,255.32,384.08,258.32,385.54z"/>
<path class="st14" d="M488.33,418.43c0.74,0.33,1.48,0.65,2.22,0.98c-14.21,8.18-19.99,21.91-24.14,36.69
	c-1.61,5.72-2.01,11.66-3.03,17.6c-1.39-2.28-1.36-4.78-1.04-7.23c2.07-15.96,7.35-30.55,18.44-42.59
	C482.91,421.58,485.11,419.27,488.33,418.43z"/>
<path class="st12" d="M456.16,335.36c-0.89-0.72-1.23-2.03-0.76-2.68c4.8-6.58-0.58-13.15-0.15-19.78c0.19-2.92-3.41-6.21-5.6-9.1
	c-1.05-1.38-2.84-2.19-4.29-3.26c-0.35-0.21-0.46-0.42-0.35-0.64c0.11-0.22,0.22-0.33,0.34-0.33c7.67,2.21,11.43,7.84,13.07,15.19
	C460,321.86,460.26,328.86,456.16,335.36z"/>
<path class="st12" d="M445.34,299.58c0.01,0.32,0.01,0.64,0.01,0.96c-3.64,0.29-7.02-0.32-10.41-1.91
	c-6.94-3.26-14.45-1.92-21.75-2.06c-3.31-0.07-6.62,0.07-9.93-0.04c-2.29-0.08-4.14,0.23-3.89,4.68c-0.91-2.61-1.22-3.52-1.53-4.42
	c0.08-0.72,0.45-1.35,1.18-1.32c13.69,0.52,27.48-1.72,41.08,1.63C442.09,297.57,443.81,298.28,445.34,299.58z"/>
<path class="st13" d="M258.7,328.4c-1.07,0.35-3.52,1.38-2.62-0.54c3.25-6.94,0.68-14.06,1.54-21.01c0.16-1.31-0.02-2.66,0.04-3.99
	c0.22-4.72-2.17-6.38-6.7-6.42c-3.37-0.03-6.92,1.14-10.15-0.83c4.81-0.08,9.63-0.01,14.43-0.3c2.92-0.18,3.71,0.91,3.66,3.68
	C258.73,308.79,258.75,318.6,258.7,328.4z"/>
<path class="st13" d="M261.65,347.31c2.59-4.9,7.06-3.38,10.4-2.1c4.95,1.9,9.92,1.63,14.53,0.59c2.59-0.58,3.43,0.21,4.84,1.37
	C281.5,347.22,271.58,347.26,261.65,347.31z"/>
<path class="st2" d="M538.11,248.69c-0.38,0.37-0.75,0.73-1.13,1.1c-3.33-2.97-3.79-6.39-1.65-10.24c0.58,0.33,1.16,0.66,1.73,0.98
	C536.72,243.34,537.49,246.01,538.11,248.69z"/>
<path class="st15" d="M512.68,317.07c11.22,0.03,19.18,6.93,19.98,17.32c0.77,10-6.25,19.38-15.7,20.42
	c-8.83,0.98-15.22-3.68-20.52-10.08c-3.08-3.72-5.28-8.04-7.25-12.46c-0.86-1.94-1.26-3.53,0.59-5.36
	C494.91,321.87,505.75,317.05,512.68,317.07z"/>
<path class="st14" d="M576.42,356.29c-3.25-0.34-6.57-0.06-10.23-0.06c2.39-2.88,5.56-3.73,8.16-5.45
	c6.07-4.03,8.06-8.54,6.37-14.76c-0.48-1.77-0.98-3.79-2.85-4.42c-2.23-0.76-3.7,0.99-5.02,2.48c-4.52,5.09-8.77,10.45-13.55,15.28
	c-5.15,5.21-5.11,11.04-3.04,17.26c0.83,2.49,2.26,4.79,3.48,7.14c2.91,5.6,5.57,11.33,7.04,17.49
	c2.58,10.79-1.61,18.41-11.81,20.39c-9.14,1.77-18.45,2.53-27.74,0.54c-7.19,0.02-13.93-2.38-20.82-3.93
	c-0.39,0.39-0.79,0.79-1.18,1.18c7,3.22,14.58,4.26,22.04,5.74c0.88,1.24,2.24,1.36,3.56,1.42c8.66,0.39,17.31,0.13,25.79-1.81
	c8.52-1.95,13.1-7.81,13.85-16.71c0.45-5.31-0.85-10.15-2.95-14.97c-2.53-5.82-5.34-11.53-7.61-17.59c3.67,1.01,6.54,2.97,9.51,4.71
	c1.37,0.81,2.27,2.13,2.19,3.71c-0.45,8.53,2.45,16.76,2.19,25.29c-0.23,7.47-3.57,13.12-9.78,16.93
	c-6.25,3.83-13.05,5.28-20.54,4.42c-6.39-0.73-12.77-2.36-19.3-1.34c-5.68,0.15-11.08-1.66-16.62-2.44
	c-6.52-0.91-13.09-2.08-19.23,1.64c0.1,1.77,1.18,1.33,2.22,0.98c3.38-0.81,6.8-1.58,10.29-1.02c7.47,1.2,14.93,2.51,22.39,3.77
	c8.61,0.67,17.22,1.92,25.83,1.88c20.11-0.09,31.33-14.28,27.67-34.12c-0.78-4.23-1.65-8.46-1.55-12.84
	c0.07-2.98,0.39-5.03,4.29-4.93c3.59,0.09,5.19-2.53,5.33-5.94C585.03,360.89,581.77,356.86,576.42,356.29z M555.92,356.47
	c7.4-8.61,13.96-16.24,20.58-23.93c4.34,7.03,3.18,12.6-3.5,16.47c-4.45,2.57-9.09,4.82-13.67,7.15
	C558.79,356.43,558.06,356.29,555.92,356.47z M581.26,368.98c-1.62,1.71-3.43,1.65-5.38,0.58c-5.86-3.21-11.74-6.38-17.74-9.64
	c1.45-1.66,2.83-2.31,4.62-2.21c4.44,0.26,8.89,0.43,13.34,0.7c3.32,0.2,5.49,1.87,6.47,5.12
	C583.2,365.65,582.73,367.42,581.26,368.98z"/>
<path class="st6" d="M228.48,152.26c-7-9.05-14.15-17.98-21.36-26.86c-0.94-1.16-1.58-3.85-4.12-1.88
	c-2.82,2.18-0.08,3.39,0.92,4.75c2.52,3.41,5.19,6.71,7.99,10.3c-11.44,0.72-18.64,6.93-18.73,15.7
	c-0.08,7.95,6.27,15.05,14.24,15.95c7.09,0.8,16.7-4.78,17.47-14.81c2.22,0.02,2.12,4.37,4.91,2.01
	C232.73,154.94,229.51,153.59,228.48,152.26z M209.82,166.13c-6.69,0.09-12.42-5.63-12.37-12.33c0.05-6.1,5.7-11.67,11.94-11.74
	c6.26-0.08,11.94,5.62,12.13,12.17C221.7,160.26,216.01,166.05,209.82,166.13z"/>
<path class="st7" d="M192.15,186.41c-0.1-1-0.03-2.08-1.51-1.96c-0.98,0.08-1.98,0.13-2.08,1.54c-0.08,1.15-0.29,2.31-0.61,3.41
	c-2.02,7.13-9.32,11.5-15.59,9.52c-2.57-0.81-3.35-1.65-1.29-4.01c4.35-5,8.27-10.39,12.82-15.19c2.77-2.91,1.41-4.06-1.1-5.45
	c-4.84-2.7-9.82-3.09-14.67-0.3c-5.39,3.09-8.55,7.73-8.5,14.18c0.01,8.29,8.06,15.98,16.21,15.46
	C184.39,203.06,192.91,194.07,192.15,186.41z M166.29,194.5c-1.54-0.53-2.38-2.63-2.58-4.55c-0.08-0.82-0.25-1.63-0.32-2.08
	c-0.09-8.13,8.42-14.17,15.15-11.24c2.07,0.9,2.54,1.69,0.9,3.53c-3.3,3.71-6.41,7.59-9.64,11.35
	C168.76,192.71,168,195.09,166.29,194.5z"/>
<path class="st16" d="M377.31,83.42c-9.28-0.17-16.54,6.56-16.62,15.43c-0.08,8.87,7,15.8,16.25,15.9
	c9.17,0.1,16.38-6.85,16.32-15.72C393.2,90.16,386.48,83.59,377.31,83.42z M376.92,110.87c-7.07-0.06-11.64-4.81-11.61-12.05
	c0.03-6.74,4.84-11.67,11.51-11.78c6.97-0.11,11.78,4.73,11.84,11.92C388.71,106.1,383.95,110.93,376.92,110.87z"/>
<path class="st17" d="M416.36,312.65c6.49-1.84,12.96-1.04,18.9,1.51c6.67,2.86,6.82,14.57,0.28,18.29
	c-5.94,3.37-12.51,3.83-19.14,1.85C415.54,327.09,415.68,319.87,416.36,312.65z"/>
<path class="st12" d="M416.36,312.65c0.02,7.22,0.03,14.43,0.05,21.65C414.74,327.09,414.77,319.87,416.36,312.65z"/>
<rect x="330.53" y="295.54" class="st18" width="54.34" height="17.27"/>
<rect x="330.53" y="330.23" class="st18" width="54.34" height="17.27"/>
<rect x="330.53" y="368.97" class="st12" width="54.34" height="17.27"/>
<polygon class="st19" points="293.8,295.2 312.04,295.2 312.04,309.61 293.76,309.61 "/>
<polygon class="st19" points="293.8,371.89 312.04,371.89 312.04,386.3 293.76,386.3 "/>
<polygon class="st19" points="239.89,371.89 258.13,371.89 258.13,386.3 239.86,386.3 "/>
<polygon class="st19" points="240,295.28 258.8,295.28 258.8,310.03 239.97,310.03 "/>
<polygon class="st12" points="442.47,377.63 448.36,385.91 469.56,385.91 461.73,374.96 "/>
<polygon class="st12" points="397.65,371.97 397.74,385.83 416.03,385.83 415.79,368.08 "/>
<path class="st2" d="M536.96,267.93c0,0,0.59,2.77-2.15,5.58c-1.04,2.28,0.72,2.05,0.72,2.05l2.77-3.16l0.72-3.29L536.96,267.93z"/>
<path class="st2" d="M482.41,250.59c0,0,3.16-3.87,6.67-7.02l-1.97-1.52l-5.35,5.8L482.41,250.59z"/>
<path class="st2" d="M534.42,238.24c0,0,0.37,2.15,0.37,2.42s0.66,0.42,0.66,0.42l1.79-1.76L534.42,238.24z"/>
<path class="st12" d="M432.62,295.75c0,0,16.57,1.3,22.74,11.23l-10.08,0.98L432.62,295.75z"/>
<path class="st2" d="M538.2,238.23c0,0-1.21,2.28-1.21,4.37l-1.37-0.13l-0.29-2.92L538.2,238.23z"/>
<path class="st2" d="M534.33,237.94c0,0,0.56,1.22-0.15,4.52l1.12,0.37l1.37-2.57l-0.42-2.67L534.33,237.94z"/>
<path class="st2" d="M533.26,250.42c0,0,0.38,0.9,0.53,1.79l-1.22-0.43l-0.01-1.38L533.26,250.42z"/>
</svg>
